<?xml version="1.0" encoding="UTF-8"?>
<!DOCTYPE svg PUBLIC "-//W3C//DTD SVG 1.1//EN" "http://www.w3.org/Graphics/SVG/1.1/DTD/svg11.dtd">
<!-- Creator: CorelDRAW X8 -->
<svg xmlns="http://www.w3.org/2000/svg" xml:space="preserve" width="297mm" height="210mm" version="1.1" style="shape-rendering:geometricPrecision; text-rendering:geometricPrecision; image-rendering:optimizeQuality; fill-rule:evenodd; clip-rule:evenodd"
viewBox="0 0 29700 21000"
 xmlns:xlink="http://www.w3.org/1999/xlink">
 <defs>
  <style type="text/css">
   <![CDATA[
    .fil16 {fill:#23AD5F}
    .fil7 {fill:#373737}
    .fil2 {fill:#3E3E3E}
    .fil10 {fill:#3FC7F4}
    .fil11 {fill:#40BA86}
    .fil6 {fill:#424343}
    .fil15 {fill:#4680C2}
    .fil12 {fill:#5B97C0}
    .fil13 {fill:#5D63AD}
    .fil21 {fill:#5E5F5F}
    .fil5 {fill:#B4B3B3}
    .fil17 {fill:#BF3B2C}
    .fil8 {fill:#D4D7D6}
    .fil19 {fill:#D6D9DA}
    .fil3 {fill:#E8E8E8}
    .fil20 {fill:#F07064}
    .fil18 {fill:#F09B22}
    .fil9 {fill:#F2F2F2}
    .fil0 {fill:white}
    .fil1 {fill:#3E3E3E;fill-opacity:0.149020}
    .fil4 {fill:url(#id0)}
    .fil14 {fill:url(#id1)}
   ]]>
  </style>
  <linearGradient id="id0" gradientUnits="userSpaceOnUse" x1="15251.4" y1="10325.6" x2="15251.4" y2="7947.91">
   <stop offset="0" style="stop-opacity:1; stop-color:#7F3F98"/>
   <stop offset="0.419608" style="stop-opacity:1; stop-color:#7B9BBD"/>
   <stop offset="0.690196" style="stop-opacity:1; stop-color:#53C8EA"/>
   <stop offset="1" style="stop-opacity:1; stop-color:#6D5CA6"/>
  </linearGradient>
  <linearGradient id="id1" gradientUnits="userSpaceOnUse" x1="12372.4" y1="9724.05" x2="12372.4" y2="8635.44">
   <stop offset="0" style="stop-opacity:1; stop-color:#7F3F98"/>
   <stop offset="0.219608" style="stop-opacity:1; stop-color:#7B9BBD"/>
   <stop offset="0.568627" style="stop-opacity:1; stop-color:#5DC6DF"/>
   <stop offset="1" style="stop-opacity:1; stop-color:#6D5CA6"/>
  </linearGradient>
 </defs>
 <g id="Camada_x0020_1">
  <metadata id="CorelCorpID_0Corel-Layer"/>
  <g id="_2709211273296">
   <path class="fil0" d="M14039 10661c0,0 217,1130 -629,1966l0 499 3911 55 -88 -381c0,0 -906,-780 -859,-2121 47,-1342 0,0 0,0l-2335 -18z"/>
   <g>
    <path class="fil0" d="M12236 9972c0,0 60,2206 -523,2750l-47 402 1427 0c0,0 -659,-1051 -574,-3152 188,-401 29,0 29,0l-349 0 37 0zm0 0l0 0 0 0z"/>
   </g>
   <path class="fil1" d="M15281 10578c1521,8 2753,49 2753,91 0,42 -1233,70 -2754,62 -1521,-8 -2753,-48 -2753,-90 0,-43 1233,-71 2754,-63z"/>
   <path class="fil2" d="M15296 10463l-1989 -10 13 -2499c0,-75 61,-135 137,-135l1852 10 1751 9c75,0 136,61 136,136l-13 2499 -1887 -10z"/>
   <path class="fil3" d="M17693 10476c-1,118 -91,213 -202,212l-4495 -23c-110,0 -199,-97 -199,-214l4896 25z"/>
   <path class="fil3" d="M15318 7864c18,0 32,15 32,32 0,18 -15,32 -32,32 -18,0 -32,-14 -32,-32 0,-18 14,-32 32,-32z"/>
   <polygon class="fil4" points="13410,10318 13422,7955 17094,7974 17081,10337 "/>
   <path class="fil5" d="M15585 10465c0,37 -32,68 -70,67l-541 -2c-38,0 -69,-31 -69,-69l680 4z"/>
   <path class="fil1" d="M12375 9935c233,0 422,16 422,37 0,20 -189,36 -422,36 -234,0 -423,-16 -423,-36 0,-21 189,-37 423,-37z"/>
   <path class="fil2" d="M12148 8477l465 0c68,0 123,55 123,123l0 1249c0,68 -55,123 -123,123l-465 0c-68,0 -122,-55 -122,-123l0 -1249c0,-68 54,-123 122,-123z"/>
   <path class="fil3" d="M12286 8574c7,0 13,6 13,14 0,7 -6,13 -13,13 -8,0 -14,-6 -14,-13 0,-8 6,-14 14,-14z"/>
   <path class="fil3" d="M12341 8574l135 0c7,0 13,6 13,14 0,7 -6,13 -13,13l-135 0c-8,0 -14,-6 -14,-13 0,-8 6,-14 14,-14z"/>
   <path class="fil3" d="M12381 9805c31,0 56,25 56,56 0,31 -25,56 -56,56 -31,0 -56,-25 -56,-56 0,-31 25,-56 56,-56z"/>
   <path class="fil6" d="M15213 8343c0,6 1,13 1,20 0,555 0,1111 0,1667 0,8 0,15 -1,23 -8,26 -17,33 -44,33 -335,0 -671,0 -1007,0 -8,0 -17,2 -24,-5 -4,-5 -5,-12 -5,-18 -1,-7 -1,-14 -1,-20 0,-555 0,-1109 0,-1663 0,-13 -2,-27 6,-39 4,-5 10,-5 16,-6 8,0 15,0 22,0 333,0 667,0 1000,0 13,0 27,-4 37,8z"/>
   <path class="fil0" d="M15361 10054c-2,-9 -3,-19 -3,-28 0,-508 0,-1015 0,-1523 0,-5 0,-11 0,-16 5,-6 11,-8 18,-8 7,0 14,0 21,0 382,0 764,0 1146,0 13,0 28,-5 39,8 0,7 1,14 1,21 0,504 0,1008 0,1512 0,12 0,23 -4,34 -8,26 -17,32 -44,32 -377,0 -753,0 -1129,0 -27,0 -36,-6 -45,-32z"/>
   <path class="fil7" d="M14140 8343c0,579 0,1157 0,1735 -4,9 -13,8 -20,8 -29,0 -58,0 -87,0 -26,0 -36,-7 -44,-33 0,-8 0,-15 0,-23 0,-557 0,-1113 0,-1669 0,-6 0,-12 1,-18 5,-8 13,-8 20,-8 37,-1 73,-1 110,0 8,0 16,0 20,8z"/>
   <path class="fil8" d="M14140 8343c-50,0 -100,0 -150,0 -1,-33 -1,-66 -1,-99 0,-23 15,-37 37,-38 5,0 10,0 15,0 373,0 747,0 1121,0 42,0 52,10 52,52 0,28 -1,57 -1,85 -350,0 -701,0 -1051,0 -7,0 -15,0 -22,0z"/>
   <path class="fil9" d="M16582 8487c-408,0 -816,0 -1224,0 0,-48 0,-96 0,-144 9,-11 21,-8 32,-8 120,0 240,0 360,0 8,0 16,-1 24,0 13,0 22,-6 29,-18 6,-13 14,-26 21,-39 8,-15 19,-22 36,-22 124,-1 248,-1 371,0 17,0 29,7 36,22 6,12 15,22 20,34 7,17 19,23 37,23 76,0 153,-1 230,0 10,0 21,-2 28,8 0,48 0,96 0,144z"/>
   <path class="fil8" d="M16582 8343c-87,0 -174,-1 -261,0 -20,0 -31,-6 -41,-24 -37,-65 -13,-55 -90,-55 -108,-1 -216,0 -324,-1 -18,0 -30,6 -37,23 -3,8 -11,16 -13,25 -9,28 -29,32 -56,32 -134,-1 -268,0 -402,0 0,-33 0,-66 0,-99 0,-23 14,-37 37,-38 5,0 10,0 14,0 374,0 748,0 1122,0 41,0 52,10 52,52 0,29 -1,57 -1,85z"/>
   <path class="fil10" d="M14706 9294c-118,0 -236,-1 -354,0 -15,0 -18,-4 -18,-18 1,-13 2,-19 18,-19 236,1 472,1 709,0 16,0 16,7 16,19 0,13 -1,18 -16,18 -118,-1 -236,0 -355,0z"/>
   <path class="fil11" d="M14589 8573c-116,0 -234,0 -351,1 -14,0 -19,-4 -19,-19 0,-15 6,-18 19,-18 235,0 470,0 706,0 13,0 18,4 18,18 0,16 -5,19 -20,19 -117,-1 -235,-1 -353,-1z"/>
   <path class="fil12" d="M14649 8970c100,0 201,0 301,-1 14,0 19,4 19,19 0,15 -5,18 -18,18 -202,-1 -404,-1 -605,0 -14,0 -19,-3 -19,-18 0,-15 5,-19 20,-19 100,1 201,1 302,1z"/>
   <path class="fil13" d="M14540 8645c-101,0 -201,0 -302,1 -16,0 -19,-5 -19,-19 0,-16 5,-18 19,-18 201,0 403,0 604,0 16,0 19,5 19,19 1,15 -5,18 -18,18 -101,-1 -202,-1 -303,-1z"/>
   <path class="fil10" d="M14502 8717c-89,0 -177,0 -266,1 -16,0 -17,-7 -17,-19 0,-12 2,-18 16,-18 180,1 359,1 538,0 18,0 15,9 16,20 1,14 -4,17 -17,17 -90,-1 -180,-1 -270,-1z"/>
   <path class="fil12" d="M14505 9582c-88,0 -176,0 -265,0 -13,0 -21,-1 -21,-18 0,-17 7,-18 20,-18 177,0 353,0 530,0 17,0 27,17 19,32 -5,7 -12,4 -18,4 -88,0 -177,0 -265,0z"/>
   <path class="fil10" d="M14576 9078c-77,0 -154,-1 -232,0 -15,0 -17,-6 -17,-19 0,-13 3,-18 18,-18 154,1 308,1 462,0 14,0 18,4 18,18 0,15 -3,19 -19,19 -76,-1 -153,0 -230,0z"/>
   <path class="fil10" d="M14468 9510c-77,0 -154,-1 -232,0 -15,0 -17,-5 -17,-18 0,-14 3,-19 18,-18 154,0 308,0 462,0 13,0 18,2 18,17 0,15 -3,19 -18,19 -77,-1 -154,0 -231,0z"/>
   <path class="fil13" d="M14448 9438c-70,0 -140,0 -211,0 -13,0 -19,-3 -18,-18 1,-12 2,-19 17,-19 141,1 281,1 421,1 15,-1 17,5 17,17 0,13 -2,19 -17,19 -70,-1 -139,0 -209,0z"/>
   <rect class="fil14" x="12079" y="8646" width="602" height="1081"/>
   <path class="fil15" d="M14601 9114c70,0 139,0 209,-1 16,0 15,8 15,19 0,10 2,18 -15,18 -139,-1 -278,-1 -417,0 -16,0 -15,-8 -15,-18 0,-11 -2,-19 15,-19 69,1 139,1 208,1z"/>
   <path class="fil13" d="M14499 8934c-64,0 -128,-1 -191,0 -16,0 -16,-7 -17,-19 0,-14 3,-18 17,-18 128,1 257,1 385,0 16,0 16,7 17,19 0,14 -3,18 -17,18 -65,-1 -130,0 -194,0z"/>
   <path class="fil0" d="M14529 9330c58,0 115,1 173,-1 16,0 15,8 15,19 0,10 2,18 -15,18 -115,-1 -230,-1 -345,0 -16,0 -15,-7 -15,-18 0,-10 -2,-19 15,-19 57,2 115,1 172,1z"/>
   <path class="fil15" d="M14529 8753c58,0 115,1 173,0 16,0 15,8 15,18 0,11 2,19 -15,19 -115,-1 -230,-1 -345,0 -17,0 -15,-8 -15,-18 0,-11 -2,-19 15,-19 57,1 115,0 172,0z"/>
   <path class="fil15" d="M14495 8825c34,0 67,1 101,0 17,-1 12,10 12,19 1,8 4,18 -12,18 -69,-1 -137,-1 -205,0 -17,0 -13,-10 -13,-19 0,-8 -4,-19 13,-18 35,1 69,0 104,0z"/>
   <path class="fil13" d="M14491 9726c-33,0 -66,-1 -98,0 -17,1 -15,-9 -15,-19 -1,-11 0,-17 15,-17 67,0 134,1 201,0 17,-1 14,9 15,19 0,11 -1,18 -15,17 -34,-1 -68,0 -103,0z"/>
   <path class="fil11" d="M14627 9618c25,0 50,1 74,0 16,-1 16,7 16,18 0,11 0,19 -15,18 -50,0 -101,-1 -151,0 -17,1 -14,-9 -15,-19 0,-12 3,-18 16,-17 25,1 50,0 75,0z"/>
   <path class="fil15" d="M14421 8465c23,0 46,1 68,0 17,-1 11,11 11,18 0,8 6,19 -10,19 -46,-1 -91,-1 -137,0 -16,0 -11,-11 -11,-19 0,-7 -6,-19 11,-18 23,1 45,0 68,0z"/>
   <path class="fil15" d="M14494 9186c23,0 45,1 67,-1 18,0 11,12 11,20 1,8 4,17 -12,17 -44,-1 -89,-1 -134,0 -18,0 -11,-12 -12,-19 0,-9 -3,-18 12,-18 23,2 46,1 68,1z"/>
   <path class="fil15" d="M14421 9618c23,0 46,1 68,0 17,-1 11,11 11,18 0,7 6,19 -10,18 -46,0 -91,0 -137,0 -16,1 -11,-11 -11,-18 0,-7 -6,-19 11,-18 23,1 45,0 68,0z"/>
   <path class="fil11" d="M14264 8465c7,0 15,1 23,0 17,-2 20,6 19,21 0,10 -2,16 -15,15 -19,0 -38,-1 -57,1 -17,1 -14,-10 -15,-20 0,-12 3,-18 16,-17 9,1 19,0 29,0z"/>
   <path class="fil12" d="M14795 9366c-7,0 -15,-1 -22,0 -16,2 -22,-4 -21,-21 1,-11 3,-16 15,-15 20,0 40,0 60,0 15,-1 12,9 12,18 0,8 3,19 -12,18 -11,-1 -21,0 -32,0z"/>
   <path class="fil11" d="M14766 8825c8,0 15,0 22,0 23,1 24,1 23,25 -1,9 -5,12 -14,12 -20,-1 -40,-1 -61,0 -15,0 -12,-10 -12,-18 0,-9 -3,-19 12,-19 10,1 20,1 30,0z"/>
   <path class="fil13" d="M14263 9654c-8,0 -16,-1 -24,0 -17,3 -21,-5 -20,-21 1,-11 3,-16 15,-15 20,1 40,1 59,0 17,-1 12,10 13,19 0,9 2,18 -13,17 -10,-1 -20,0 -30,0z"/>
   <path class="fil11" d="M14298 8861c-7,0 -14,0 -21,1 -18,2 -23,-5 -22,-22 1,-11 4,-15 15,-15 19,1 39,1 59,0 16,0 13,10 13,19 0,10 1,19 -13,18 -10,-1 -21,-1 -31,-1z"/>
   <path class="fil13" d="M14795 9654c-8,0 -16,-1 -24,0 -15,2 -19,-3 -19,-18 0,-14 4,-19 18,-18 18,1 35,1 52,0 16,-2 17,6 18,18 0,15 -4,20 -19,18 -8,-1 -17,0 -26,0z"/>
   <path class="fil13" d="M14797 8753c8,0 16,1 24,0 15,-2 19,4 19,19 0,15 -5,18 -19,18 -19,-1 -38,-1 -57,0 -14,0 -12,-10 -11,-17 0,-8 -6,-20 10,-20 12,1 23,0 34,0z"/>
   <path class="fil11" d="M14335 9222c-8,0 -16,-1 -23,0 -18,2 -22,-5 -21,-21 1,-12 4,-16 16,-15 19,0 39,0 59,0 15,-1 12,10 12,18 0,9 2,19 -12,18 -11,-1 -21,0 -31,0z"/>
   <path class="fil11" d="M14767 9726c-8,0 -16,-1 -23,0 -16,2 -22,-3 -21,-19 1,-12 3,-18 16,-17 20,1 39,1 58,0 14,-1 14,7 13,17 0,9 4,20 -13,19 -10,-1 -20,0 -30,0z"/>
   <path class="fil13" d="M14262 8789c-8,0 -17,0 -25,1 -15,2 -18,-5 -18,-18 0,-16 5,-20 19,-19 19,1 37,1 56,0 15,0 12,10 12,18 0,8 4,19 -12,19 -10,-1 -21,-1 -32,-1z"/>
   <path class="fil11" d="M14652 9222c-8,0 -16,-1 -23,0 -17,2 -22,-5 -21,-21 1,-12 4,-16 16,-15 19,0 39,0 59,0 15,-1 12,9 12,18 0,9 2,19 -12,18 -11,-1 -21,0 -31,0z"/>
   <path class="fil11" d="M14579 8501c-8,0 -16,-1 -24,0 -17,3 -19,-5 -19,-20 1,-11 3,-17 15,-16 19,1 38,1 58,0 14,-1 14,7 14,18 0,10 2,20 -14,18 -10,0 -20,0 -30,0z"/>
   <path class="fil12" d="M14264 9330c7,0 15,1 22,0 17,-3 21,5 20,21 0,11 -3,16 -15,15 -20,-1 -40,-1 -59,0 -16,1 -12,-10 -12,-18 0,-9 -3,-19 12,-18 11,0 21,0 32,0z"/>
   <path class="fil11" d="M14298 9726c-7,0 -15,-1 -23,0 -16,2 -21,-4 -20,-20 1,-12 3,-17 16,-16 19,1 39,1 58,0 14,-1 13,8 13,17 0,9 3,20 -13,19 -10,-1 -20,0 -31,0z"/>
   <path class="fil15" d="M14871 8934c-8,0 -15,-1 -22,0 -14,2 -17,-4 -18,-18 0,-16 4,-20 20,-19 17,2 33,1 50,0 17,0 9,13 10,19 0,7 6,19 -10,18 -10,-1 -20,0 -30,0z"/>
   <path class="fil12" d="M14890 9150c-5,0 -9,-1 -12,0 -16,2 -17,-6 -18,-19 0,-13 3,-19 17,-18 7,1 15,1 22,0 16,-2 20,4 20,20 0,28 -20,12 -29,17z"/>
   <path class="fil10" d="M14774 8934c-2,0 -4,0 -5,0 -25,0 -30,-4 -23,-28 7,-20 27,-5 40,-8 6,-1 16,-5 17,8 3,26 2,28 -29,28z"/>
   <path class="fil13" d="M14317 9150c-11,-2 -27,7 -26,-16 0,-17 5,-23 21,-20 3,0 6,0 9,0 20,0 28,11 20,30 -4,12 -17,3 -24,6z"/>
   <path class="fil10" d="M14663 8861c-13,3 -18,-1 -19,-18 -1,-22 13,-16 25,-18 16,-2 19,4 20,20 1,21 -13,16 -26,16z"/>
   <path class="fil15" d="M14665 9726c-13,2 -21,1 -21,-18 -1,-23 12,-17 24,-18 14,-2 20,1 21,18 0,21 -10,19 -24,18z"/>
   <path class="fil9" d="M15970 8559c170,0 340,0 510,0 29,0 31,2 31,31 0,215 0,429 0,644 0,29 -2,31 -31,31 -340,0 -680,0 -1020,0 -28,0 -30,-2 -30,-31 0,-215 0,-430 0,-645 0,-28 2,-30 31,-30 169,0 339,0 509,0z"/>
   <path class="fil9" d="M15970 9856c171,0 341,0 512,0 26,0 29,2 29,29 0,31 0,62 0,93 0,27 -3,29 -29,29 -269,0 -538,0 -807,0 -73,0 -145,0 -218,0 -24,0 -27,-3 -27,-27 0,-32 0,-65 0,-97 0,-24 3,-27 27,-27 171,0 342,0 513,0z"/>
   <path class="fil9" d="M16343 9640c-42,0 -84,-1 -126,0 -17,0 -24,-7 -24,-24 1,-85 1,-170 0,-256 0,-16 7,-23 24,-23 85,0 170,0 256,0 17,0 23,7 23,23 0,86 0,171 0,256 0,17 -6,24 -23,24 -43,-1 -87,0 -130,0z"/>
   <path class="fil9" d="M16114 9489c0,42 0,84 0,126 0,21 -4,25 -24,25 -85,0 -169,0 -254,0 -20,0 -24,-4 -24,-25 0,-84 0,-169 0,-254 0,-20 4,-24 24,-24 85,0 169,0 254,0 20,0 24,4 24,24 0,43 0,86 0,128z"/>
   <path class="fil9" d="M15590 9337c42,0 84,0 126,0 17,0 24,7 24,23 -1,86 -1,171 0,256 0,17 -7,24 -24,24 -85,-1 -170,-1 -255,0 -17,0 -24,-7 -24,-24 0,-85 0,-170 0,-256 0,-17 7,-23 24,-23 43,0 86,0 129,0z"/>
   <path class="fil9" d="M15562 9712c-31,0 -62,-1 -93,0 -14,0 -18,-5 -18,-18 0,-12 3,-19 17,-19 64,1 127,1 190,0 15,0 17,7 17,19 0,14 -5,18 -18,18 -31,-1 -63,0 -95,0z"/>
   <path class="fil9" d="M15938 9676c31,0 63,0 94,-1 13,0 18,4 18,18 0,13 -4,19 -18,19 -63,-1 -126,-1 -189,0 -14,0 -17,-6 -17,-18 0,-13 4,-19 17,-19 32,1 64,1 95,1z"/>
   <path class="fil9" d="M16319 9712c-31,0 -62,-1 -93,0 -13,0 -18,-4 -18,-18 0,-13 3,-19 18,-19 62,1 124,1 187,0 13,0 19,4 19,19 0,14 -6,18 -20,18 -31,-1 -62,0 -93,0z"/>
   <path class="fil9" d="M16292 9740c22,0 44,1 66,0 13,0 16,6 16,18 0,12 -2,19 -17,19 -44,-1 -88,-1 -132,0 -15,0 -17,-7 -17,-19 0,-13 4,-18 17,-18 22,1 44,0 67,0z"/>
   <path class="fil9" d="M15896 9740c18,0 35,1 53,0 14,0 14,8 14,18 0,9 1,19 -13,18 -37,0 -74,0 -111,0 -14,1 -13,-9 -13,-18 0,-10 1,-18 14,-18 19,1 37,0 56,0z"/>
   <path class="fil9" d="M15521 9784c-18,0 -36,-1 -54,0 -14,0 -16,-7 -16,-18 0,-11 1,-19 15,-18 36,0 72,0 108,0 13,-1 15,6 15,17 -1,10 0,19 -15,19 -18,-1 -35,0 -53,0z"/>
   <path class="fil16" d="M14306 8274c0,17 -15,32 -33,33 -18,0 -32,-14 -33,-31 -1,-18 13,-33 32,-34 18,-1 33,14 34,32z"/>
   <path class="fil17" d="M14071 8307c-19,-2 -33,-18 -31,-35 1,-18 18,-32 36,-30 18,2 30,16 30,34 -1,18 -17,32 -35,31z"/>
   <path class="fil18" d="M14173 8307c-18,0 -32,-14 -33,-31 -1,-19 14,-34 32,-34 18,0 33,14 34,31 0,18 -14,33 -33,34z"/>
   <path class="fil0" d="M16066 8451c-138,0 -275,0 -413,0 -26,0 -28,-3 -29,-29 0,-43 0,-43 44,-43 270,0 541,0 812,0 29,0 31,2 31,30 0,42 0,42 -42,42 -134,0 -269,0 -403,0z"/>
   <path class="fil19" d="M15509 8415c2,-9 -5,-21 4,-25 8,-4 15,7 23,11 19,14 19,15 -1,27 -7,5 -14,16 -22,12 -9,-5 -2,-17 -4,-25z"/>
   <path class="fil19" d="M15473 8415c-2,9 5,21 -4,25 -7,4 -15,-7 -22,-12 -20,-13 -20,-14 0,-27 7,-5 15,-16 23,-11 8,4 2,17 3,25z"/>
   <path class="fil17" d="M15489 8274c0,18 -15,33 -33,33 -19,0 -34,-16 -33,-33 0,-17 15,-32 32,-32 19,0 34,14 34,32z"/>
   <path class="fil16" d="M15689 8274c0,18 -15,33 -33,33 -18,0 -32,-14 -33,-32 0,-18 14,-33 32,-33 18,0 34,14 34,32z"/>
   <path class="fil18" d="M15589 8274c0,18 -15,33 -33,33 -18,-1 -33,-15 -33,-32 0,-18 15,-33 33,-33 18,0 33,14 33,32z"/>
   <path class="fil19" d="M15835 9135c-74,0 -147,0 -220,0 -15,0 -31,1 -37,-15 -7,-17 -8,-34 2,-50 12,-20 25,-38 39,-56 9,-12 13,-25 13,-40 -1,-79 0,-157 0,-236 0,-29 6,-35 34,-35 110,0 220,0 330,0 31,0 39,8 39,40 0,78 0,156 0,234 0,13 4,24 12,35 13,18 26,37 39,56 11,16 9,34 3,51 -5,14 -18,16 -31,16 -75,0 -149,0 -223,0z"/>
   <path class="fil19" d="M16292 8789c35,0 70,1 106,0 13,0 20,3 19,18 0,14 -4,19 -18,19 -72,-1 -144,-1 -216,0 -14,0 -19,-5 -19,-19 0,-15 7,-18 20,-18 36,1 72,0 108,0z"/>
   <path class="fil20" d="M16235 8991c-19,0 -39,0 -59,0 -8,0 -11,-3 -11,-11 -4,-46 -4,-46 43,-46 29,0 58,0 88,-1 10,0 13,4 13,14 1,44 2,44 -43,44 -10,0 -20,0 -31,0z"/>
   <path class="fil19" d="M16269 8898c-28,0 -57,-1 -86,0 -14,0 -19,-5 -19,-19 1,-13 5,-18 18,-18 58,1 116,1 174,0 14,0 18,5 18,18 0,14 -4,19 -19,19 -28,-1 -57,0 -86,0z"/>
   <path class="fil9" d="M15833 8991c-42,0 -84,0 -126,0 -14,1 -18,-4 -18,-17 1,-66 0,-131 0,-196 0,-13 4,-18 17,-18 85,1 170,1 255,0 13,0 17,5 17,17 -1,66 -1,131 0,196 0,15 -6,19 -20,18 -42,0 -83,0 -125,0z"/>
   <path class="fil9" d="M15832 9078c-14,0 -29,-1 -43,0 -10,0 -13,-5 -13,-15 0,-9 3,-14 13,-14 30,0 60,0 90,0 10,0 12,6 12,15 0,9 -3,14 -12,14 -16,-1 -31,0 -47,0z"/>
   <path class="fil19" d="M15833 8934c-30,0 -61,0 -91,-1 -21,0 -24,-3 -24,-28 0,-25 3,-29 23,-29 62,0 123,0 184,0 21,0 24,4 24,29 0,25 -3,28 -24,28 -30,1 -61,1 -92,1z"/>
   <path class="fil19" d="M15832 8847c-30,0 -60,0 -90,0 -17,1 -24,-6 -24,-23 0,-33 1,-35 34,-35 57,0 114,0 171,0 23,1 26,4 26,29 0,26 -3,29 -25,29 -31,0 -62,0 -92,0z"/>
   <path class="fil0" d="M12108 9592c-1,-4 -1,-8 -1,-13 0,-227 0,-454 0,-681 0,-3 0,-5 0,-8 2,-2 5,-3 8,-3 3,0 6,0 9,0 171,0 342,0 513,0 6,0 13,-2 18,3 0,4 0,7 0,10 0,226 0,451 0,677 0,5 0,10 -1,15 -4,11 -8,14 -20,14 -169,0 -338,0 -506,0 -12,0 -16,-3 -20,-14z"/>
   <path class="fil9" d="M12655 8890c-183,0 -366,0 -548,0 0,-21 0,-43 0,-64 4,-5 9,-4 14,-4 54,0 108,0 161,0 4,0 7,0 11,0 6,0 10,-2 13,-8 3,-6 6,-11 9,-17 4,-7 9,-10 17,-10 55,0 110,0 166,0 7,0 12,3 16,10 2,5 6,10 8,15 4,8 9,10 17,10 34,0 69,0 103,0 5,0 9,-1 13,4 0,21 0,43 0,64z"/>
   <path class="fil8" d="M12655 8826c-39,0 -78,0 -117,0 -9,0 -14,-3 -19,-11 -16,-29 -6,-24 -40,-25 -48,0 -97,1 -145,0 -8,0 -13,3 -16,10 -2,4 -5,8 -6,12 -4,12 -13,14 -25,14 -60,0 -120,0 -180,0 0,-15 0,-30 0,-44 0,-11 6,-17 16,-17 2,0 5,0 7,0 167,0 334,0 502,0 18,0 23,4 23,23 0,13 0,25 0,38z"/>
   <path class="fil9" d="M12381 8923c76,0 152,0 228,0 13,0 14,0 14,13 0,97 0,193 0,289 0,13 -1,14 -14,14 -152,0 -304,0 -456,0 -13,0 -14,-1 -14,-14 0,-96 0,-192 0,-289 0,-13 1,-13 14,-13 76,0 152,0 228,0z"/>
   <path class="fil9" d="M12381 9503c76,0 152,0 229,0 12,0 13,1 13,13 0,14 0,28 0,42 0,12 -1,13 -13,13 -121,0 -241,0 -361,0 -33,0 -66,0 -98,0 -11,0 -12,-1 -12,-12 0,-15 0,-29 0,-44 0,-10 1,-12 12,-12 77,0 153,0 230,0z"/>
   <path class="fil9" d="M12548 9406c-19,0 -38,0 -57,1 -7,0 -10,-3 -10,-11 0,-38 0,-76 0,-115 0,-7 3,-10 10,-10 38,0 77,0 115,0 7,0 10,3 10,10 0,39 0,77 0,115 0,8 -3,11 -10,11 -20,-1 -39,-1 -58,-1z"/>
   <path class="fil9" d="M12445 9339c0,19 0,38 0,57 0,9 -1,10 -11,10 -38,0 -75,0 -113,0 -9,0 -11,-1 -11,-10 0,-38 0,-76 0,-114 0,-9 1,-11 11,-11 38,0 75,0 113,0 10,0 11,2 11,11 0,19 0,38 0,57z"/>
   <path class="fil9" d="M12211 9271c18,0 37,0 56,0 8,0 11,3 11,10 -1,39 -1,77 0,115 0,8 -3,11 -11,10 -38,0 -76,0 -114,0 -8,1 -11,-3 -11,-10 0,-38 0,-76 0,-115 0,-7 3,-10 11,-10 19,0 38,0 58,0z"/>
   <path class="fil21" d="M12287 8958c33,0 66,0 100,0 13,0 18,5 18,19 0,67 0,135 0,202 0,14 -5,19 -18,19 -68,0 -136,0 -203,0 -13,0 -19,-5 -19,-19 1,-67 1,-135 0,-202 0,-14 6,-19 19,-19 34,0 68,0 103,0z"/>
   <path class="fil9" d="M12198 9439c-14,0 -28,-1 -42,0 -6,0 -8,-2 -8,-8 0,-6 2,-9 8,-9 28,1 57,1 85,0 7,0 8,4 8,9 0,6 -2,8 -8,8 -15,-1 -29,0 -43,0z"/>
   <path class="fil9" d="M12366 9423c14,0 28,0 42,-1 6,0 8,2 8,8 0,6 -1,9 -8,9 -28,0 -56,0 -84,0 -6,0 -8,-3 -8,-8 0,-6 2,-9 8,-9 14,1 28,1 42,1z"/>
   <path class="fil9" d="M12537 9439c-14,0 -28,-1 -42,0 -6,0 -8,-2 -8,-8 0,-6 2,-9 8,-9 28,1 56,1 84,0 6,0 8,2 8,9 0,6 -2,8 -8,8 -14,-1 -28,0 -42,0z"/>
   <path class="fil9" d="M12525 9452c10,0 19,0 29,0 6,-1 7,2 7,7 1,6 -1,9 -7,9 -20,0 -40,0 -59,0 -7,0 -8,-3 -8,-8 0,-6 2,-9 8,-8 10,0 20,0 30,0z"/>
   <path class="fil9" d="M12347 9452c8,0 16,0 24,0 6,-1 7,3 7,8 -1,4 0,8 -6,8 -17,0 -33,0 -50,0 -6,0 -6,-5 -6,-9 0,-4 1,-8 7,-7 8,0 16,0 24,0z"/>
   <path class="fil9" d="M12179 9471c-8,0 -16,0 -24,0 -6,0 -7,-3 -7,-8 0,-5 1,-8 7,-8 16,0 32,0 48,0 6,0 7,3 7,7 0,5 0,9 -6,9 -9,0 -17,0 -25,0z"/>
   <path class="fil0" d="M12423 8874c-61,0 -123,0 -184,0 -12,0 -13,-1 -13,-13 0,-19 0,-19 19,-19 122,0 243,0 364,0 13,0 14,1 14,14 0,18 0,18 -19,18 -60,0 -120,0 -181,0z"/>
   <path class="fil19" d="M12174 8858c1,-4 -2,-9 2,-11 3,-2 7,3 10,5 9,6 9,7 0,12 -3,2 -7,7 -10,5 -4,-2 -1,-7 -2,-11z"/>
   <path class="fil19" d="M12158 8858c-1,4 2,10 -2,11 -3,2 -6,-3 -10,-5 -8,-6 -8,-6 1,-12 3,-2 6,-7 10,-5 3,2 1,7 1,11z"/>
   <path class="fil17" d="M12165 8795c0,8 -6,15 -15,15 -8,0 -14,-7 -14,-15 0,-8 6,-14 14,-14 9,0 15,6 15,14z"/>
   <path class="fil16" d="M12255 8795c0,8 -7,15 -15,15 -8,0 -14,-6 -15,-14 0,-8 6,-15 15,-15 8,0 15,6 15,14z"/>
   <path class="fil18" d="M12210 8795c0,8 -7,15 -15,15 -8,0 -14,-7 -14,-15 -1,-8 6,-14 14,-14 8,0 15,6 15,14z"/>
   <path class="fil19" d="M12525 9026c16,0 31,0 47,0 6,0 9,1 9,8 0,6 -2,8 -8,8 -33,0 -65,0 -97,0 -6,0 -8,-2 -8,-8 0,-7 3,-8 8,-8 17,0 33,0 49,0z"/>
   <path class="fil20" d="M12499 9116c-8,0 -17,0 -26,0 -4,0 -5,-1 -5,-5 -2,-21 -2,-21 19,-21 13,0 26,1 39,0 5,0 6,2 6,6 1,20 1,20 -19,20 -4,0 -9,0 -14,0z"/>
   <path class="fil19" d="M12515 9074c-13,0 -26,0 -39,0 -6,1 -8,-2 -8,-8 0,-6 2,-8 8,-8 26,0 52,0 78,0 6,0 7,2 8,8 0,6 -2,9 -9,8 -13,0 -26,0 -38,0z"/>
   <polygon class="fil0" points="14201,8400 14235,8395 14243,8359 14249,8394 14284,8401 14249,8408 14242,8442 14236,8408 "/>
  </g>
 </g>
</svg>
